<svg width="32" height="32" viewBox="0 0 32 32" fill="none" xmlns="http://www.w3.org/2000/svg">
  <!-- Rounded background - exact oklch(0.1776 0 0) -->
  <rect width="32" height="32" rx="8" fill="#2d2d2d"/>

  <!-- Subtle border -->
  <rect width="32" height="32" rx="8" fill="none" stroke="#404040" stroke-width="0.25"/>

  <!-- Compact pixelated "S" pattern (scaled for 32x32) -->
  <g>
    <!-- Row 1 (top horizontal) -->
    <rect x="10" y="5" width="3" height="3" rx="0.5" fill="#ffe0c2"/>
    <rect x="13.5" y="5" width="3" height="3" rx="0.5" fill="#ffe0c2"/>
    <rect x="17" y="5" width="3" height="3" rx="0.5" fill="#ffe0c2"/>

    <!-- Row 2 (left edge) -->
    <rect x="10" y="10" width="3" height="3" rx="0.5" fill="#ffe0c2"/>

    <!-- Row 3 (middle horizontal) -->
    <rect x="10" y="15" width="3" height="3" rx="0.5" fill="#ffe0c2"/>
    <rect x="13.5" y="15" width="3" height="3" rx="0.5" fill="#ffe0c2"/>
    <rect x="17" y="15" width="3" height="3" rx="0.5" fill="#ffe0c2"/>

    <!-- Row 4 (right edge) -->
    <rect x="17" y="20" width="3" height="3" rx="0.5" fill="#ffe0c2"/>

    <!-- Row 5 (bottom horizontal) -->
    <rect x="10" y="25" width="3" height="3" rx="0.5" fill="#ffe0c2"/>
    <rect x="13.5" y="25" width="3" height="3" rx="0.5" fill="#ffe0c2"/>
    <rect x="17" y="25" width="3" height="3" rx="0.5" fill="#ffe0c2"/>
  </g>
</svg>
